<?xml version="1.0" standalone="no"?>
<!DOCTYPE svg PUBLIC "-//W3C//DTD SVG 20010904//EN"
 "http://www.w3.org/TR/2001/REC-SVG-20010904/DTD/svg10.dtd">
<svg version="1.0" xmlns="http://www.w3.org/2000/svg"
 width="177.000000pt" height="177.000000pt" viewBox="0 0 177.000000 177.000000"
 preserveAspectRatio="xMidYMid meet">
<metadata>
Created by potrace 1.11, written by Peter Selinger 2001-2013
</metadata>
<g transform="translate(0.000000,177.000000) scale(0.100000,-0.100000)"
fill="#000000" stroke="none">
<path d="M290 1759 c0 -6 10 -25 23 -42 18 -27 22 -45 22 -115 0 -45 3 -82 8
-82 4 0 7 6 8 13 0 6 4 2 9 -10 5 -13 14 -23 20 -23 13 0 13 140 0 176 -6 15
-9 29 -7 31 6 6 164 -64 236 -104 35 -20 92 -64 127 -98 121 -122 182 -318
156 -505 -8 -53 -10 -58 -11 -25 -1 22 -5 47 -11 55 -6 9 -8 -26 -7 -98 1 -62
5 -112 9 -112 4 0 20 24 34 53 39 76 98 160 135 191 58 49 98 62 177 57 23 -1
23 -1 -7 -32 -42 -42 -80 -109 -96 -169 -19 -71 -2 -71 24 0 30 81 73 134 165
204 46 35 74 62 68 68 -5 5 -20 3 -37 -6 -17 -9 -58 -15 -108 -15 -104 -1
-166 -29 -237 -108 -48 -55 -49 -56 -40 -22 15 50 12 175 -5 248 -29 119 -99
223 -198 289 -46 31 -67 40 -238 106 -64 24 -135 54 -158 65 -45 24 -61 26
-61 10z m585 -350 c35 -65 53 -135 59 -229 l5 -75 -9 70 c-14 100 -44 191 -85
259 -20 34 -28 52 -17 43 11 -10 31 -40 47 -68z"/>
<path d="M0 1640 c0 -6 12 -33 26 -61 38 -75 62 -184 69 -306 10 -196 16 -247
31 -303 27 -95 81 -179 181 -278 51 -52 93 -96 93 -98 0 -2 -8 -4 -17 -5 -10
0 -37 -13 -60 -27 -141 -91 -168 -105 -209 -110 -24 -2 -44 -8 -44 -12 0 -28
133 -66 198 -56 140 20 146 22 136 37 -4 8 -38 9 -108 5 -99 -6 -100 -6 -71
10 17 10 48 34 70 56 65 62 137 85 203 63 37 -11 24 9 -30 45 -107 72 -206
194 -248 307 -28 74 -37 119 -65 313 -25 174 -50 266 -91 338 l-25 43 48 -30
c26 -16 86 -46 133 -65 70 -30 95 -47 145 -99 33 -35 82 -81 109 -102 71 -56
158 -179 181 -255 l8 -25 -21 25 c-32 38 -26 14 17 -70 21 -41 49 -103 61
-138 24 -66 45 -93 35 -45 -6 27 -5 27 9 -4 8 -18 17 -33 19 -33 6 0 -29 190
-49 264 -9 33 -38 107 -65 163 -80 163 -190 259 -376 327 -110 40 -207 83
-255 113 -21 13 -38 19 -38 13z m159 -595 c6 -44 14 -91 17 -105 4 -14 4 -23
1 -19 -14 12 -36 128 -41 209 -5 93 3 63 23 -85z m540 -12 c15 -53 6 -52 -12
2 -9 25 -12 43 -7 40 5 -3 14 -22 19 -42z"/>
<path d="M1140 782 c-42 -15 -91 -37 -110 -49 -19 -12 -84 -46 -145 -76 -185
-93 -323 -195 -461 -340 -44 -45 -94 -105 -113 -132 -28 -41 -16 -31 65 50 96
97 217 202 279 241 17 10 32 21 35 25 9 11 141 90 219 130 70 36 131 50 131
31 0 -4 -41 -28 -92 -52 -218 -106 -411 -241 -553 -385 -49 -50 -95 -98 -100
-106 -34 -45 -19 -35 62 43 50 48 139 123 198 166 178 132 465 295 503 286 18
-5 18 -7 -5 -51 -26 -53 -31 -124 -8 -143 11 -9 22 -8 52 7 37 18 63 53 29 40
-9 -4 -23 -10 -31 -13 -12 -5 -15 3 -14 37 0 58 20 113 42 117 10 2 17 -3 17
-12 0 -20 7 -20 26 -2 18 19 18 26 -2 41 -14 10 -5 16 57 38 41 14 85 29 99
33 31 8 51 24 45 34 -5 7 18 17 59 26 46 10 23 14 -60 10 -75 -4 -86 -2 -71 9
12 8 14 15 8 20 -6 3 -11 1 -11 -6 0 -10 -3 -10 -12 -1 -18 18 -55 14 -138
-16z"/>
<path d="M1203 565 c-13 -9 -23 -23 -23 -32 0 -13 2 -13 16 -2 15 12 16 11 11
-6 -3 -11 -8 -38 -12 -61 l-6 -41 65 -1 c49 0 66 3 66 13 0 7 -5 15 -10 17 -7
2 -7 22 1 62 6 32 8 61 4 64 -14 14 -40 -18 -48 -59 -12 -61 -31 -78 -22 -19
12 68 11 74 -5 77 -8 2 -25 -4 -37 -12z"/>
<path d="M1350 555 c-24 -26 -21 -47 4 -26 12 10 13 6 5 -31 -6 -24 -12 -51
-15 -61 -5 -15 -1 -18 17 -15 16 2 26 13 33 36 12 43 29 41 20 -3 -6 -33 -5
-35 22 -35 16 0 39 -3 50 -6 21 -6 29 0 60 41 l15 20 -3 -20 c-4 -32 9 -45 37
-35 16 6 25 5 27 -2 7 -19 48 2 63 33 19 36 28 38 15 4 -7 -20 -6 -27 4 -31
23 -9 59 0 64 15 3 10 0 12 -11 8 -17 -6 -16 13 3 91 7 25 5 34 -5 38 -14 6
-81 -3 -96 -12 -13 -7 -11 -48 2 -61 8 -8 6 -18 -7 -37 -21 -28 -23 -29 -42
-17 -10 6 -11 18 -3 52 19 79 17 82 -36 75 -26 -3 -53 -12 -61 -20 -13 -13
-13 -18 1 -40 15 -23 15 -26 -4 -50 -12 -15 -26 -23 -35 -19 -16 6 -16 10 3
105 4 23 2 27 -16 25 -14 -1 -22 -10 -26 -29 -7 -30 -27 -39 -24 -10 5 50 -23
58 -61 17z m226 -21 c-3 -9 -6 -20 -6 -25 0 -6 -4 -7 -10 -4 -16 10 -12 45 6
45 11 0 14 -5 10 -16z m144 -4 c0 -11 -4 -20 -9 -20 -14 0 -23 18 -16 30 10
17 25 11 25 -10z"/>
<path d="M547 263 c-12 -11 -8 -23 9 -23 12 0 14 -7 10 -27 -21 -106 -28 -154
-24 -158 2 -2 13 -2 25 1 17 5 23 19 34 91 11 65 18 87 30 88 35 5 38 -8 22
-93 -8 -46 -13 -85 -11 -87 2 -2 13 -2 25 1 17 5 23 19 33 82 6 43 14 89 17
105 l6 27 -85 0 c-47 0 -88 -3 -91 -7z"/>
<path d="M840 210 c-8 -5 -25 -7 -38 -3 -25 6 -62 -20 -62 -44 0 -16 16 -17
24 0 6 12 5 4 -9 -75 -5 -24 -3 -38 3 -38 20 0 40 30 47 69 4 22 12 45 20 51
10 9 10 0 0 -49 -7 -33 -10 -62 -8 -65 2 -2 12 -2 23 1 12 3 20 18 24 48 4 23
14 51 22 61 14 17 15 17 10 2 -3 -10 -8 -41 -12 -68 l-7 -51 29 7 c41 10 48
15 33 25 -10 6 -11 19 -3 58 12 60 7 72 -32 69 -16 -1 -34 1 -40 4 -5 4 -16 3
-24 -2z"/>
<path d="M986 199 c-28 -22 -35 -45 -11 -35 18 6 18 5 5 -52 -13 -54 -7 -64
27 -51 18 6 28 6 33 0 7 -13 60 0 59 14 -1 6 -6 9 -11 7 -6 -2 -8 7 -5 20 14
55 18 106 10 111 -18 11 -35 -12 -44 -59 -5 -26 -14 -53 -20 -59 -9 -7 -10 -3
-6 15 18 80 19 97 3 103 -8 3 -26 -3 -40 -14z"/>
<path d="M1146 199 c-28 -22 -35 -45 -11 -35 17 6 17 6 5 -54 -10 -55 -6 -62
27 -49 17 6 30 6 38 -1 6 -5 15 -6 20 -2 4 4 4 -8 0 -26 -4 -19 -3 -32 3 -32
15 0 42 29 42 46 0 8 9 13 23 13 12 -1 30 2 40 6 11 4 17 3 17 -5 0 -8 9 -10
28 -5 36 9 51 23 33 34 -11 7 -11 19 -2 61 13 61 10 70 -27 64 -34 -6 -79 -57
-94 -108 -7 -21 -14 -34 -16 -28 -2 6 -11 8 -19 5 -12 -5 -15 -2 -11 9 4 8 9
40 13 71 7 53 6 55 -13 50 -16 -4 -24 -18 -32 -59 -6 -29 -16 -57 -22 -60 -7
-5 -9 -2 -6 8 4 9 9 36 13 60 8 55 -10 68 -49 37z m217 -51 c-3 -18 -12 -40
-20 -48 -14 -13 -15 -10 -8 25 8 45 12 55 25 55 5 0 7 -15 3 -32z"/>
</g>
</svg>
